<svg xmlns="http://www.w3.org/2000/svg" viewBox="0 0 165.52 482.66"><defs><style>.cls-1{fill:#fff;}</style></defs><g id="レイヤー_2" data-name="レイヤー 2"><g id="レイヤー_1-2" data-name="レイヤー 1"><rect class="cls-1" x="87.52" width="78" height="420"/><rect class="cls-1" y="149.74" width="78" height="332.92"/><path d="M139.5,45.85c0,1.56.06,4.5.06,6.43s0,8-8.3,8c-5.15,0-6.32-1.28-6.32-3a2.31,2.31,0,0,1,2.35-2.41,1.57,1.57,0,0,1,.48.05,22.2,22.2,0,0,0,3.54.38c1.93,0,3.21-.59,3.27-2.79,0-1.39.1-4,.1-7.12C121.4,55.49,107.37,59.4,106.24,59.4a2.69,2.69,0,0,1-2.73-2.67,2.49,2.49,0,0,1,2.14-2.36,72.81,72.81,0,0,0,23.2-10.12,213.24,213.24,0,0,1-22.5,3.26,2.3,2.3,0,0,1-2.46-2.35,2.35,2.35,0,0,1,2.3-2.41c1.87-.11,3.8-.27,5.78-.43,0-4.23-.1-9.21-.1-13.66,0-2,0-3.91,0-5.62.11-4.82,4.07-4.93,9.43-4.93a38.44,38.44,0,0,0,1.07-4.55c.16-1.13,1.34-1.66,2.57-1.66,1.5,0,3.11.75,3.11,2.3a16.45,16.45,0,0,1-1.24,3.91c2.57,0,5.15.05,7.23.11,3.38.1,5.41,2,5.47,4.87V34.93a53.6,53.6,0,0,0,4.66-6.27A2.12,2.12,0,0,1,146,27.54,3.16,3.16,0,0,1,149,30.43a2.18,2.18,0,0,1-.48,1.34,67.5,67.5,0,0,1-9,9.58Zm-4.87-20.13c0-.7,0-1.34,0-1.88-.11-1.87-.54-1.87-9-1.87-8.2,0-8.73.05-8.73,2,0,.53-.06,1.12-.06,1.77Zm.05,3.69H116.79v3.38h17.89Zm.06,7.12H116.85c0,1.83.05,3.59.05,5.25,6.21-.69,12.48-1.6,17.84-2.51Z"/><path d="M104.48,124a3,3,0,0,1-3-2.83,2.31,2.31,0,0,1,1.34-2,27.17,27.17,0,0,0,7.44-5.57c.06-2.41.11-4.5.11-6.53,0-3.65,0-3.75-2.52-3.75h-2.25c-1.12,0-3-.06-3-2.31a2.3,2.3,0,0,1,2.24-2.41c1.93,0,3.7,0,5.47.06,3.43.11,5,1.61,5,5,0,3.11-.1,6.81-.1,10.23,3.64,4.61,9.26,5.41,16.12,5.41,5.35,0,11.14-.59,15.21-.91h.27a2.5,2.5,0,0,1,2.57,2.57,2.63,2.63,0,0,1-2.68,2.63c-3.38.32-8.25.64-13.12.64-13.13,0-16.61-2.25-20.84-6.59C112.51,118.05,107.1,124,104.48,124Zm7-35.18A17.12,17.12,0,0,0,106,84.52a2,2,0,0,1-1.18-1.72,2.74,2.74,0,0,1,2.73-2.51c1.45,0,8.52,3.59,8.52,6.59a3,3,0,0,1-2.79,2.94A2.24,2.24,0,0,1,111.44,88.86Zm22.17,7.66H126c-.54,9-3.43,18.58-7.13,18.58a2.64,2.64,0,0,1-2.67-2.46,2.53,2.53,0,0,1,.58-1.56c3.91-5,4.5-12,4.5-17.4,0-2.2-.1-4.13-.1-5.57v-.22c0-2.73,1-5,5-5.46a59.38,59.38,0,0,0,13.66-3.27,3.24,3.24,0,0,1,1.18-.21,2.53,2.53,0,0,1,2.57,2.57,2.76,2.76,0,0,1-2.25,2.62,100.33,100.33,0,0,1-13,2.68c-2,.32-2.25,1.13-2.25,2.09,0,.64.06,1.77.06,3.11l19.92-.11a2.33,2.33,0,1,1,0,4.66h-7.55l.11,18.26a2.59,2.59,0,0,1-5.14,0Z"/><path d="M126.11,152.32c-2.41,6.59-7,13.93-10.81,20.51a3,3,0,0,1-2.68,1.61,2.37,2.37,0,0,1-2.52-2.3,3.27,3.27,0,0,1,.59-1.82c3.86-5.84,6.85-10,9.48-15.64-3.11,1.5-5.09,2.14-6.75,2.14-3.53,0-3.53-2.41-3.53-2.62a2.43,2.43,0,0,1,2.46-2.52,3.86,3.86,0,0,1,1.07.16,2.45,2.45,0,0,0,.91.11c1.93,0,4.71-1.4,7.55-2.79.16-1.28.11-2.52.22-4.12a2.36,2.36,0,0,1,2.51-2.36,2.44,2.44,0,0,1,2.58,2.3v1.13a2,2,0,0,1,.58-.11,2.2,2.2,0,0,1,2.15,2.2c0,1.82-2.31,3.21-3.81,4.07Zm-1.55,35.46c-4.87,0-8.94-3.49-8.94-6.54,0-3.53,4.71-6.16,11.62-6.16.8,0,1.66.06,2.46.11-.37-4.28-.37-4.5-.37-5.09,0-3.48,1.12-6.64,7.39-10.82a1,1,0,0,0,.48-.64c0-.32-.48-.32-.7-.32a19.71,19.71,0,0,0-3.42.64,3,3,0,0,1-.7.06,1.83,1.83,0,0,1-2-1.77c0-1.39,1.55-3,7.12-3,3.91,0,8.62,2.25,8.62,4.71a2.75,2.75,0,0,1-2.73,2.41c-4.29.38-9.59,3.22-9.59,8.84a16.18,16.18,0,0,0,.27,2.62c.16,1.08.38,2.2.54,3.32,3.32,1,8.51,3.38,8.51,6.43a2.65,2.65,0,0,1-2.46,2.79,3.16,3.16,0,0,1-2.2-1.08,17.93,17.93,0,0,0-4.07-2.89C133.34,184.62,129.22,187.78,124.56,187.78Zm1.5-8.57c-3.16,0-5.84,1.07-5.84,2s1.88,2.09,4,2.09c2.62,0,5.14-1.61,5.46-3.69A16.3,16.3,0,0,0,126.06,179.21Z"/><path d="M104.69,251.08a2.29,2.29,0,0,1-2.52-2.3,2.49,2.49,0,0,1,2.52-2.58l18.26.06v-9.64l-10.06,0a2.28,2.28,0,0,1-2.52-2.3,2.44,2.44,0,0,1,2.52-2.47L123,232v-8.2l-9.53.06a62.81,62.81,0,0,1-5.94,8.73,3,3,0,0,1-2.36,1.23,2.51,2.51,0,0,1-2.57-2.41,2.7,2.7,0,0,1,.69-1.71,48,48,0,0,0,9.54-17.52,2.43,2.43,0,0,1,2.46-1.82c1.5,0,3,1,3,2.46a2.32,2.32,0,0,1-.16.81q-1,2.81-2.25,5.46l7.12,0v-9.53a2.77,2.77,0,1,1,5.52,0v9.53l14.46,0a2.39,2.39,0,1,1,0,4.77l-14.46-.06V232l10.82-.06a2.39,2.39,0,1,1,0,4.77l-10.82,0v9.64l17.89-.06a2.35,2.35,0,0,1,2.41,2.47,2.27,2.27,0,0,1-2.41,2.41Z"/><path d="M109.56,292a20.94,20.94,0,0,0-6.26-3.43A1.77,1.77,0,0,1,102,286.8a2.64,2.64,0,0,1,2.57-2.57,19.52,19.52,0,0,1,7.87,3.16,2.72,2.72,0,0,1,1.13,2.25,2.84,2.84,0,0,1-2.47,2.94A2.25,2.25,0,0,1,109.56,292Zm-2.83,24.21a2.79,2.79,0,0,1-2.84-2.62,2.57,2.57,0,0,1,.64-1.61,48.29,48.29,0,0,0,7.18-12.75,2.24,2.24,0,0,1,2.14-1.44,2.57,2.57,0,0,1,2.68,2.46c0,1.18-3.22,9.27-7.29,14.57A3.06,3.06,0,0,1,106.73,316.2Zm5.19-35.94a22.26,22.26,0,0,0-5.41-4.39,2,2,0,0,1-1-1.66,2.69,2.69,0,0,1,2.68-2.41c.91,0,8.25,3.37,8.25,6.48a3,3,0,0,1-2.73,2.89A2.29,2.29,0,0,1,111.92,280.26Zm23.46,10.13v6.74c1.45,0,2.84.06,4,.11,3.26.11,6.1,2,6.26,5,.11,1.5.11,3.1.11,4.66,0,1.23,0,2.46-.05,3.64-.16,3.16-2.25,5.25-6.32,5.57-1.61.16-4,.21-6.43.21-8.14,0-12.53-.27-12.75-5.62,0-1.56-.1-3.11-.1-4.61,0-1.28,0-2.51.1-3.64.16-3.11,2.41-5.09,6-5.25,1.13-.05,2.52-.11,4-.11v-6.74h-11a2.37,2.37,0,1,1,0-4.72h11v-6.32c-3.05.38-7.88.7-8.63.7a2.35,2.35,0,0,1-2.46-2.47,2.21,2.21,0,0,1,2.2-2.35,67.43,67.43,0,0,0,20-2.89,3.48,3.48,0,0,1,1-.16,2.41,2.41,0,0,1,2.41,2.46c0,2-1,2.68-9.43,4v7h11.35a2.38,2.38,0,1,1,0,4.72Zm5,13.17c-.21-2.19-1.12-2.19-7.6-2.19-1.93,0-3.8.05-5,.1-2.46.16-2.46,1.29-2.46,4.45,0,1.12,0,2.3,0,3.26.11,2.58,1.88,2.58,7.61,2.58,7.55,0,7.55,0,7.55-5.25C140.52,305.54,140.47,304.53,140.41,303.56Z"/><path d="M109.46,376.93a34.31,34.31,0,0,1-1.4-10.23c0-9.42,2.74-18.63,3-22.33a2.63,2.63,0,0,1,5.25-.21,1.39,1.39,0,0,1,0,.42c-.75,3.91-3.48,13.82-3.48,19.12,0,2,.37,2.2.53,2.2s.27-.11.38-.37c1.66-3.16,2-3.81,3.16-3.81A2.33,2.33,0,0,1,119,364a1.69,1.69,0,0,1-.26,1c-2.57,4.44-4,8.46-4,10.07,0,.48,0,1,0,1.44a2.52,2.52,0,0,1-2.67,2.79A2.86,2.86,0,0,1,109.46,376.93Zm29.78-.32c-9.27,0-16.34-5.51-16.34-8.14a2.69,2.69,0,0,1,2.79-2.52,3.18,3.18,0,0,1,2.41,1.18c2.25,2.52,6.05,3.59,10.39,3.59a33.82,33.82,0,0,0,4.55-.32,2.76,2.76,0,0,1,.64,0,2.47,2.47,0,0,1,2.68,2.57C146.36,375.7,144,376.61,139.24,376.61Zm-6.06-23.51a30.24,30.24,0,0,1-7.23-.8,2.53,2.53,0,0,1-2.25-2.41,2.5,2.5,0,0,1,2.47-2.52,2.09,2.09,0,0,1,.53.05,24.91,24.91,0,0,0,5.2.54,50.94,50.94,0,0,0,6.59-.54c.16,0,.32-.05.48-.05a2.46,2.46,0,0,1,2.57,2.52C141.54,352,140,353.1,133.18,353.1Z"/><path d="M144.59,407.83a20.42,20.42,0,0,0-6.59-5.62,2.42,2.42,0,0,1-1.44-2.14,2.38,2.38,0,0,1,2.51-2.36c1.88,0,10.45,4.71,10.45,8.36a3,3,0,0,1-2.89,2.94A2.44,2.44,0,0,1,144.59,407.83Z"/><path d="M23.74,183.17c-3.38,3.85-4.77,5.14-6.27,5.14A2.46,2.46,0,0,1,15,185.9a2.63,2.63,0,0,1,.91-1.93,48.7,48.7,0,0,0,12.8-18.37,2.58,2.58,0,0,1,2.41-1.71,2.88,2.88,0,0,1,3,2.67c0,1.4-3.21,6.75-5,9.54L28.4,208a2.57,2.57,0,0,1-2.79,2.41,2.34,2.34,0,0,1-2.57-2.3V208Zm25.81-3.32H33.75a2.36,2.36,0,1,1,0-4.72h15.8v-9a2.6,2.6,0,0,1,5.2,0v9h6.53a2.37,2.37,0,1,1,0,4.72H54.75V194l.16,7.71V202c0,5.25-3.38,8-9.32,8a26.05,26.05,0,0,1-5.79-.7,2.74,2.74,0,0,1-2.35-2.73,2.36,2.36,0,0,1,2.35-2.46,3.76,3.76,0,0,1,.81.11,18.13,18.13,0,0,0,4.49.69c3.38,0,4.45-1.66,4.45-3.91Zm-8.68,14.4a20.13,20.13,0,0,0-6.32-5,2,2,0,0,1-1.23-1.87A2.57,2.57,0,0,1,36,185c1.71,0,9.48,4,9.48,7.23a3,3,0,0,1-2.84,3A2.3,2.3,0,0,1,40.87,194.25Z"/><path d="M29.47,243.47c-.32,7.71-1.93,20.89-10.45,29.35a3.23,3.23,0,0,1-2.14,1,2.67,2.67,0,0,1-2.73-2.47,2.22,2.22,0,0,1,.8-1.71c8.09-7.72,9-19.18,9.37-26.25l.06-.42c-1.77.05-3.54.1-5.3.1H19a2.17,2.17,0,0,1-2.25-2.3,2.3,2.3,0,0,1,2.31-2.41c1.87-.05,3.64-.05,5.46-.11.05-1.34.05-2.68.05-4s0-2.63-.05-3.8v-.11a2.34,2.34,0,0,1,2.57-2.25,2.52,2.52,0,0,1,2.73,2.36v1.39c0,2-.05,4.18-.16,6.32h3.8c5.63.11,5.63,5.19,5.63,7.18a134.62,134.62,0,0,1-1.07,18c-1,6.16-4.29,8.84-8.73,8.84a14.92,14.92,0,0,1-3.86-.59A2.6,2.6,0,0,1,23.57,269a2.21,2.21,0,0,1,2.09-2.41,3.54,3.54,0,0,1,1,.16,5.66,5.66,0,0,0,2.09.37c2.94,0,5.35-1.66,5.35-19.6,0-3.37,0-4.66-2.09-4.66-.85,0-1.66,0-2.46,0ZM55,272.07c-1.12.05-2.19.11-3.26.11-4.23,0-9-.11-9.16-5.79-.11-4-.16-8.24-.16-12.53s0-8.57.16-12.48c.1-3,2.41-5.35,5.89-5.57,1.18-.05,2.25-.1,3.32-.1s2.14,0,3.27.1a6.12,6.12,0,0,1,6,5.68c.16,3.75.21,8,.21,12.26s-.05,8.57-.21,12.48A6.12,6.12,0,0,1,55,272.07Zm1.13-18.48c0-4-.06-7.87-.16-11-.06-1.92-1-2.19-2.47-2.35a17.14,17.14,0,0,0-1.76-.11,17.52,17.52,0,0,0-1.77.11c-1.45.16-2.3.69-2.36,2.35-.16,3.06-.21,6.81-.21,10.61,0,4.18.05,8.35.21,11.78.06,1.82.43,2.36,4.18,2.36,3,0,4.12-.32,4.18-2.52C56.08,261.52,56.14,257.56,56.14,253.59Z"/><path d="M21.11,336.39l.59-24.26c-2.41,3.48-3.7,4.55-5.09,4.55a2.38,2.38,0,0,1-2.41-2.25,2.85,2.85,0,0,1,.75-1.71,54.76,54.76,0,0,0,10.61-19.18,2.31,2.31,0,0,1,2.3-1.66c1.39,0,2.95,1.08,2.95,2.52s-3.54,8.25-4,9.05l-.64,32.94a2.47,2.47,0,0,1-2.63,2.36,2.29,2.29,0,0,1-2.46-2.31Zm39.74-35.78-8.51-.05V307c1.12,0,2.14,0,3,.05,3.27.11,5.84,2.14,5.89,5.25,0,3.91.16,7.55.16,11.41,0,2.46,0,5-.16,7.76-.16,3.38-2.62,5-6.27,5.31-2.35.16-5.89.26-9.37.26-3.16,0-6.32-.1-8.51-.21-4.29-.21-6.11-2.25-6.27-5.57-.11-2.89-.16-5.68-.16-8.46,0-3.59.05-7.13.16-10.82.05-2.79,2.25-4.88,5.41-4.93,1,0,2-.05,3.16-.05v-6.38H32.68a2.24,2.24,0,0,1-2.52-2.19,2.34,2.34,0,0,1,2.52-2.3H60.85a2.33,2.33,0,0,1,2.57,2.3,2.29,2.29,0,0,1-2.52,2.19ZM39.43,311.27c-.54,0-1,.06-1.39.06-1.88.1-2.41.8-2.41,2.19-.06,3.16-.11,6.43-.11,9.64,0,2.3,0,4.66.11,6.91,0,1.82.48,2.3,2.83,2.41.33,0,.59.06,1,.06Zm8.41-10.76-3.91.05v6.37h3.91Zm0,10.71H43.93v21.37h3.91Zm4.5,0v21.27c.53,0,1.12-.06,1.55-.06,1.93-.11,2.41-.86,2.46-2.3.11-2.47.16-4.93.16-7.34,0-3.11,0-6.21-.16-9.32-.05-1.66-.69-2.14-2.3-2.19Z"/><path d="M22,400.93,22.66,375c-.8,1.07-1.6,2.09-2.41,3.06a3.13,3.13,0,0,1-2.41,1.23,2.5,2.5,0,0,1-2.57-2.36,2.58,2.58,0,0,1,.75-1.71,49.92,49.92,0,0,0,10.55-17.73,2.32,2.32,0,0,1,2.25-1.61,3,3,0,0,1,3,2.68,2.83,2.83,0,0,1-.26,1.07q-1.77,3.71-3.7,7.23l-.7,34.07a2.52,2.52,0,0,1-2.67,2.41A2.34,2.34,0,0,1,22,401Zm28.55-34.76-.22,2.62c1.61,0,3.16,0,4.24.11,2.46.16,4.28,1.71,4.33,3.85.06,2.68.11,5.25.11,7.77,0,3.05-.05,6.05-.11,9.1-.05,2.52-1.5,4.18-4.5,4.4-1.33.1-3.48.16-5.57.16-1.76,0-3.48-.06-4.55-.16a4.21,4.21,0,0,1-4.07-4.4c0-3.32,0-6.64,0-9.8,0-2.35,0-4.66,0-6.85a3.85,3.85,0,0,1,4-4.07c.33,0,.65-.06,1-.06l.22-2.67H33.64a2.15,2.15,0,1,1,0-4.29H45.75l.32-4a2.55,2.55,0,0,1,2.73-2.3,2.26,2.26,0,0,1,2.46,2.14v.22l-.32,4h10a2.15,2.15,0,1,1,0,4.29Zm-14,6.48c-.06,2.51-.06,6.75-.06,11s0,8.41.06,10.82a1.92,1.92,0,0,0,2,2.19c3,.16,7,.22,11.19.22,3.8,0,7.82-.06,11.52-.22h.1a2.18,2.18,0,0,1,2.25,2.3,2.31,2.31,0,0,1-2.35,2.41c-4,.11-8.52.16-13,.16-3.81,0-7.56-.05-10.82-.16-3.86-.1-5.79-2.51-5.84-6.05,0-2.73-.05-7-.05-11.3s.05-8.57.05-11.35a2.43,2.43,0,0,1,2.52-2.52,2.31,2.31,0,0,1,2.41,2.46Zm17.88,7H44.68v3.32h9.74Zm-.1-3.54c0-2.35,0-3.64-1.45-3.64-.75-.05-2-.05-3.37-.05s-2.63,0-3.48.05-1.24.7-1.24,1.4-.05,1.44-.05,2.24Zm-9.59,10.34c0,.86.05,1.66.05,2.46,0,1.29.11,1.45,4.66,1.45,1.24,0,2.47-.05,3.27-.05,1.45-.06,1.61-.59,1.61-3.86Z"/><path d="M45.43,450.79a27.73,27.73,0,0,1-.11,2.94c-.16,2.14-1.61,3.27-2.89,3.27a2.24,2.24,0,0,1-2.2-2.52V454a29.45,29.45,0,0,0,.22-3.59c-1.13.59-6.11,3.21-6.11,6.59,0,.91.43,4.07,5.89,4.07A24.57,24.57,0,0,0,47,459.94a4.31,4.31,0,0,1,1.34-.21,2.58,2.58,0,0,1,2.78,2.52c0,1.12-.42,3.85-9.58,3.85-8.79,0-12-4.6-12-8.51,0-6.54,7.61-10.61,10.39-12-.64-2.09-1.71-3.16-3.16-3.16a5.25,5.25,0,0,0-2.78,1c-2.25,2.52-3.59,3.27-4.77,3.27a2.14,2.14,0,0,1-2.3-2,2.91,2.91,0,0,1,1.23-2.19A27.86,27.86,0,0,0,35,434.24a15.69,15.69,0,0,1-2.62.21c-5.41,0-5.46-3-5.46-3.43a2.27,2.27,0,0,1,2.19-2.35,3.42,3.42,0,0,1,1.93.69,3.64,3.64,0,0,0,2,.43,20.36,20.36,0,0,0,4.23-.59,20.84,20.84,0,0,0,1-4.23,2.09,2.09,0,0,1,2.25-1.87c1.39,0,2.89,1,2.89,2.35a10.65,10.65,0,0,1-.32,2c1.6-.8,1.82-.85,2.19-.85a2.33,2.33,0,0,1,2.31,2.35c0,1.77-1.4,2.84-7,4.18a57.16,57.16,0,0,1-3,5.36c3,0,5.36,1.66,6.75,5,6.75-2.89,11.46-4.34,12.37-4.34a2.85,2.85,0,0,1,3,2.79A2.21,2.21,0,0,1,58.17,444c-1.66.69-3.42.91-6.21,1.76-2.25.7-4.55,1.56-6.64,2.41A19.4,19.4,0,0,1,45.43,450.79Z"/></g></g></svg>